<svg width="54" height="54" viewBox="0 0 54 54" fill="none" xmlns="http://www.w3.org/2000/svg">
<path d="M29.25 6.75C23.8794 6.75 18.7287 8.88348 14.9311 12.6811C11.1335 16.4787 9 21.6294 9 27H2.25L11.0025 35.7525L11.16 36.0675L20.25 27H13.5C13.5 18.2925 20.5425 11.25 29.25 11.25C37.9575 11.25 45 18.2925 45 27C45 35.7075 37.9575 42.75 29.25 42.75C24.9075 42.75 20.97 40.9725 18.135 38.115L14.94 41.31C16.8152 43.1955 19.0451 44.6912 21.5011 45.7107C23.9572 46.7301 26.5908 47.2533 29.25 47.25C34.6206 47.25 39.7713 45.1165 43.5689 41.3189C47.3665 37.5213 49.5 32.3706 49.5 27C49.5 21.6294 47.3665 16.4787 43.5689 12.6811C39.7713 8.88348 34.6206 6.75 29.25 6.75ZM27 18V29.25L36.63 34.965L38.25 32.2425L30.375 27.5625V18H27Z" fill="black"/>
</svg>
