<svg width="54" height="54" viewBox="0 0 54 54" fill="none" xmlns="http://www.w3.org/2000/svg">
<path d="M9 29.25H22.5C23.0967 29.25 23.669 29.0129 24.091 28.591C24.5129 28.169 24.75 27.5967 24.75 27V9C24.75 8.40326 24.5129 7.83097 24.091 7.40901C23.669 6.98705 23.0967 6.75 22.5 6.75H9C8.40326 6.75 7.83097 6.98705 7.40901 7.40901C6.98705 7.83097 6.75 8.40326 6.75 9V27C6.75 27.5967 6.98705 28.169 7.40901 28.591C7.83097 29.0129 8.40326 29.25 9 29.25ZM6.75 45C6.75 45.5967 6.98705 46.169 7.40901 46.591C7.83097 47.0129 8.40326 47.25 9 47.25H22.5C23.0967 47.25 23.669 47.0129 24.091 46.591C24.5129 46.169 24.75 45.5967 24.75 45V36C24.75 35.4033 24.5129 34.831 24.091 34.409C23.669 33.9871 23.0967 33.75 22.5 33.75H9C8.40326 33.75 7.83097 33.9871 7.40901 34.409C6.98705 34.831 6.75 35.4033 6.75 36V45ZM29.25 45C29.25 45.5967 29.4871 46.169 29.909 46.591C30.331 47.0129 30.9033 47.25 31.5 47.25H45C45.5967 47.25 46.169 47.0129 46.591 46.591C47.0129 46.169 47.25 45.5967 47.25 45V29.25C47.25 28.6533 47.0129 28.081 46.591 27.659C46.169 27.2371 45.5967 27 45 27H31.5C30.9033 27 30.331 27.2371 29.909 27.659C29.4871 28.081 29.25 28.6533 29.25 29.25V45ZM31.5 22.5H45C45.5967 22.5 46.169 22.2629 46.591 21.841C47.0129 21.419 47.25 20.8467 47.25 20.25V9C47.25 8.40326 47.0129 7.83097 46.591 7.40901C46.169 6.98705 45.5967 6.75 45 6.75H31.5C30.9033 6.75 30.331 6.98705 29.909 7.40901C29.4871 7.83097 29.25 8.40326 29.25 9V20.25C29.25 20.8467 29.4871 21.419 29.909 21.841C30.331 22.2629 30.9033 22.5 31.5 22.5Z" fill="black"/>
</svg>
