<svg width="54" height="54" viewBox="0 0 54 54" fill="none" xmlns="http://www.w3.org/2000/svg">
<path d="M21.4253 24.8366C21.2039 24.837 20.9826 24.8474 20.7621 24.8679V26.995H21.5198C22.1425 26.995 22.4049 26.6794 22.4049 25.9411C22.4049 25.321 22.2387 24.8366 21.4253 24.8366Z" fill="black"/>
<path d="M35.6611 18.6595V1.33734H18.322V18.6595H0.976196V35.9944H18.322V53.3166H35.6611V35.9944H53.0018V18.6595H35.6611ZM6.99129 30.8407H3.50238V23.8148H6.90691V24.9531H4.86251V26.638H6.70779V27.7661H4.86251V29.7337H6.99213L6.99129 30.8407ZM13.4013 30.8407H12.1264V26.2904H12.0833L10.7662 28.9651L9.43817 26.3014V30.8407H8.1101V23.8148H9.38501L10.7662 26.4794L12.1264 23.8148H13.4021L13.4013 30.8407ZM18.2832 30.8407H14.7951V23.8148H18.1997V24.9531H16.1527V26.638H17.9997V27.7661H16.1527V29.7337H18.2832V30.8407ZM23.8081 30.8407H22.3864L21.7417 28.3753C21.6894 28.1753 21.6472 28.0808 21.4684 28.0808H20.7621V30.8407H19.402V23.857C20.0567 23.7877 20.7147 23.7559 21.373 23.7617C22.8065 23.7617 23.7439 24.4156 23.7439 25.8567C23.7439 26.8701 23.333 27.4058 22.7104 27.6488V27.6598C22.8589 27.702 22.9112 27.8075 22.9534 27.9855L23.8081 30.8407ZM29.543 27.7737C29.543 29.3017 29.1634 30.9563 27.2573 30.9563C25.3057 30.9563 24.6628 29.0714 24.6628 27.3426C24.6628 25.5943 25.3707 23.6984 27.3619 23.6984C28.1095 23.6984 28.6672 24.0055 29.2072 24.5413L28.458 25.542C28.1525 25.1632 27.8893 24.8586 27.3417 24.8586C26.1723 24.8586 26.087 26.4794 26.087 27.3341C26.087 28.1973 26.1183 29.8713 27.2978 29.8713C28.204 29.8713 28.3086 29.0503 28.3086 28.3222V28.0707H27.3518V26.9553H29.543V27.7737ZM34.2031 30.8407H30.7142V23.8148H34.1195V24.9531H32.0718V26.638H33.9187V27.7661H32.0718V29.7337H34.2031V30.8407ZM40.127 30.8407H38.9365L36.6803 26.5022H36.6491V30.8407H35.321V23.8148H36.6381L38.7905 27.9754H38.8099V23.8148H40.127V30.8407ZM43.945 30.9563C42.0061 30.9563 41.31 29.2402 41.31 27.3333C41.31 25.5302 42.0592 23.6976 44.0091 23.6976C44.8301 23.6976 45.3676 24.068 45.9076 24.7092L45.0942 25.6694C44.7896 25.2045 44.5053 24.8577 43.9872 24.8577C43.0262 24.8577 42.7309 26.0685 42.7309 27.3333C42.7309 28.2817 42.9215 29.8072 44.0176 29.8072C44.5896 29.8072 44.9035 29.4604 45.2511 28.9963L45.9472 29.9869C45.4832 30.5556 44.8082 30.9563 43.9442 30.9555L43.945 30.9563ZM49.3855 28.1551V30.8407H48.0355V28.2285L46.2004 23.814H47.6558L48.7215 27.016L49.7854 23.814H51.1675L49.3864 28.1542L49.3855 28.1551Z" fill="black"/>
</svg>
