<svg width="64" height="64" viewBox="0 0 64 64" fill="none" xmlns="http://www.w3.org/2000/svg">
<path fill-rule="evenodd" clip-rule="evenodd" d="M45.112 18.4133C45.112 23.028 43.9653 29.0467 42.2013 28.1333C41.48 30.4889 39.9656 32.5223 37.9153 33.8882C35.8651 35.254 33.4052 35.8681 30.9536 35.6263C28.5019 35.3844 26.2095 34.3015 24.4656 32.5614C22.7217 30.8212 21.6338 28.5312 21.3867 26.08C19.636 23.0173 17.34 16.88 23.2427 12.096C23.3493 12.0613 23.4133 11.7733 23.5093 11.3493C23.8747 9.74534 24.684 6.18 29.7893 6.86134C33.7267 7.38534 45.112 9.41734 45.112 18.4133ZM40.0373 21.3227C40.0373 21.3227 39.4347 23.0853 40 25.0493C39.9927 27.1434 39.1645 29.1512 37.6933 30.6415C36.2221 32.1318 34.2253 32.9858 32.1314 33.0202C30.0376 33.0546 28.0137 32.2666 26.4944 30.8254C24.9751 29.3842 24.0814 27.4047 24.0053 25.312C24.1987 24.5787 24.1987 23.3373 24.1973 21.9573C24.196 19.468 24.1933 16.5307 25.3333 15.3333C33.3187 20.652 40.0373 21.3227 40.0373 21.3227Z" fill="black"/>
<path d="M17.3333 48C17.3333 46.5573 18.0973 45.2933 19.244 44.5893C19.2003 44.4234 19.1594 44.2567 19.1213 44.0893C18.919 43.1784 18.761 42.2582 18.648 41.332C18.5334 40.4446 18.4645 39.5518 18.4413 38.6573C12.8133 40.8667 8 44.7173 8 48.76V56H56V48.76C56 44.888 51.5867 41.1933 46.2693 38.9467V38.984C46.2933 39.7973 46.248 40.7307 46.16 41.628C46.08 42.46 45.9613 43.2893 45.8187 44H46.6667C46.9142 44.0001 47.1568 44.0692 47.3674 44.1994C47.5779 44.3296 47.748 44.5159 47.8587 44.7373L49.192 47.404C49.2853 47.5893 49.3333 47.7933 49.3333 48V50.6667C49.3333 51.0203 49.1929 51.3594 48.9428 51.6095C48.6928 51.8595 48.3536 52 48 52H45.3333V49.3333H46.6667V48.3147L45.8427 46.6667H42.1573L41.3333 48.3147V49.3333H42.6667V52H40C39.6464 52 39.3072 51.8595 39.0572 51.6095C38.8071 51.3594 38.6667 51.0203 38.6667 50.6667V48C38.6667 47.7933 38.7147 47.5893 38.808 47.404L40.1413 44.7373C40.252 44.5159 40.4221 44.3296 40.6326 44.1994C40.8432 44.0692 41.0858 44.0001 41.3333 44H43.0867C43.116 43.8853 43.1453 43.7587 43.1747 43.6187C43.308 42.9907 43.4267 42.1947 43.5067 41.372C43.5867 40.548 43.624 39.7307 43.604 39.0587C43.599 38.7803 43.5772 38.5024 43.5387 38.2267C43.5093 38.0373 43.48 37.9507 43.4747 37.932C43.4733 37.928 43.472 37.9267 43.4747 37.9293L43.4787 37.928C42.7712 37.7082 42.0556 37.5156 41.3333 37.3507C40.6627 37.1973 39.9693 38.12 39.6667 38.6973H24C23.9611 38.623 23.9228 38.5484 23.8853 38.4733C23.6027 37.9107 23.2547 37.216 22.6667 37.3507C22.1533 37.4667 21.64 37.6 21.1267 37.7467C21.1101 37.9805 21.103 38.2149 21.1053 38.4493C21.1107 39.1867 21.1813 40.0893 21.2947 41.0013C21.408 41.9107 21.5613 42.796 21.7213 43.4947C21.7667 43.696 21.812 43.8773 21.8547 44.0333C22.617 44.1335 23.3342 44.4513 23.9206 44.9486C24.5069 45.4459 24.9375 46.1016 25.1609 46.8373C25.3842 47.573 25.3908 48.3575 25.1798 49.0968C24.9688 49.8361 24.5493 50.499 23.9713 51.0061C23.3934 51.5131 22.6815 51.8428 21.921 51.9558C21.1605 52.0688 20.3836 51.9602 19.6832 51.643C18.9828 51.3258 18.3887 50.8135 17.972 50.1674C17.5552 49.5214 17.3335 48.7688 17.3333 48Z" fill="black"/>
<path d="M22.6667 48C22.6667 48.7653 22.0507 49.3533 21.3333 49.3533C20.616 49.3533 20 48.7667 20 48C20 47.2347 20.616 46.6467 21.3333 46.6467C22.0507 46.6467 22.6667 47.2333 22.6667 48Z" fill="black"/>
</svg>
